<svg width="20" height="20" viewBox="0 0 20 20" fill="none" xmlns="http://www.w3.org/2000/svg">
<path fill-rule="evenodd" clip-rule="evenodd" d="M16.4483 8.33333H17.3333C17.8856 8.33333 18.3333 8.78105 18.3333 9.33333V10.6667C18.3333 11.2189 17.8856 11.6667 17.3333 11.6667H16.4492C16.2483 12.4425 15.9167 13.165 15.4708 13.8033L15.9601 14.2929C16.3503 14.6835 16.3502 15.3164 15.9598 15.7069L15.7074 15.9593C15.3167 16.3499 14.6834 16.3498 14.2929 15.9591L13.8042 15.47C13.1642 15.9158 12.4433 16.2483 11.6667 16.4483V17.3333C11.6667 17.8856 11.2189 18.3333 10.6667 18.3333H9.33333C8.78105 18.3333 8.33333 17.8856 8.33333 17.3333V16.4483C7.5575 16.2483 6.83583 15.9158 6.19666 15.47L5.7071 15.9596C5.31658 16.3501 4.68341 16.3501 4.29289 15.9596L4.04044 15.7071C3.64991 15.3166 3.64991 14.6834 4.04044 14.2929L4.53 13.8033C4.08416 13.1658 3.75166 12.4433 3.55166 11.6667H2.66666C2.11438 11.6667 1.66666 11.2189 1.66666 10.6667V9.33333C1.66666 8.78105 2.11438 8.33333 2.66666 8.33333H3.55166C3.75166 7.55666 4.08333 6.835 4.53 6.19666L4.04044 5.7071C3.64991 5.31658 3.64991 4.68341 4.04044 4.29289L4.29289 4.04044C4.68341 3.64991 5.31658 3.64991 5.7071 4.04044L6.19666 4.53C6.835 4.08333 7.55666 3.75166 8.33333 3.55166V2.66666C8.33333 2.11438 8.78105 1.66666 9.33333 1.66666H10.6667C11.2189 1.66666 11.6667 2.11438 11.6667 2.66666V3.55083C12.4433 3.75166 13.1642 4.08333 13.8042 4.52916L14.2929 4.0401C14.6834 3.64934 15.3167 3.64923 15.7074 4.03985L15.9598 4.2923C16.3502 4.68273 16.3503 5.31571 15.96 5.70627L15.47 6.19666C15.9158 6.835 16.2483 7.5575 16.4483 8.33333ZM10 13.3333C11.8409 13.3333 13.3333 11.8409 13.3333 10C13.3333 8.15905 11.8409 6.66666 10 6.66666C8.15905 6.66666 6.66666 8.15905 6.66666 10C6.66666 11.8409 8.15905 13.3333 10 13.3333Z" fill="#B9BBBE"/>
</svg>
