<svg width="20" height="20" viewBox="0 0 20 20" fill="none" xmlns="http://www.w3.org/2000/svg">
<path d="M4.67593 12.9645C4.85682 12.7836 4.74168 12.5026 4.48586 12.5019C4.43594 12.5018 4.38489 12.5017 4.3334 12.5016C3.78112 12.5003 3.33333 12.0523 3.33333 11.5V10C3.33333 6.32333 6.32417 3.33333 10 3.33333C11.1511 3.33333 12.235 3.62654 13.1809 4.14223C13.3012 4.20778 13.451 4.18945 13.5478 4.09262L14.3323 3.30811C14.4664 3.17401 14.4441 2.95041 14.2816 2.85269C13.0295 2.09988 11.5644 1.66666 10 1.66666C5.405 1.66666 1.66667 5.40416 1.66667 10V15.2495C1.66667 15.5168 1.98981 15.6506 2.1788 15.4616L4.67593 12.9645Z" fill="#B9BBBE"/>
<path d="M16.642 8.05951C16.5155 8.18604 16.4677 8.37024 16.5067 8.54488C16.6114 9.0134 16.6667 9.50032 16.6667 10V11.5C16.6667 12.0523 16.219 12.5 15.6667 12.5H15C14.08 12.5 13.3333 13.2467 13.3333 14.1667V16.6667C13.3333 17.5867 14.08 18.3333 15 18.3333H16.6667C17.5875 18.3333 18.3333 17.5867 18.3333 16.6667V10C18.3333 9.08389 18.1848 8.20183 17.9105 7.3767C17.8424 7.17179 17.5839 7.11768 17.4312 7.27037L16.642 8.05951Z" fill="#B9BBBE"/>
<path d="M3.25676 19.0977C2.93132 19.4231 2.40369 19.4231 2.07825 19.0977V19.0977C1.75282 18.7722 1.75282 18.2446 2.07825 17.9192L17.3989 2.59854C17.7243 2.2731 18.252 2.2731 18.5774 2.59854V2.59854C18.9029 2.92398 18.9028 3.45161 18.5774 3.77704L3.25676 19.0977Z" fill="#ED4245"/>
</svg>
