<svg width="20" height="20" viewBox="0 0 20 20" fill="none" xmlns="http://www.w3.org/2000/svg">
<path d="M10 1.66921C5.405 1.66921 1.66666 5.40671 1.66666 10.0026V16.6693C1.66666 17.5893 2.4125 18.3359 3.33333 18.3359H5C5.92 18.3359 6.66666 17.5893 6.66666 16.6693V14.1693C6.66666 13.2493 5.92 12.5026 5 12.5026H4.33333C3.78105 12.5026 3.33333 12.0549 3.33333 11.5026V10.0026C3.33333 6.32588 6.32416 3.33588 10 3.33588C13.6758 3.33588 16.6667 6.32588 16.6667 10.0026V11.5026C16.6667 12.0549 16.2189 12.5026 15.6667 12.5026H15C14.08 12.5026 13.3333 13.2493 13.3333 14.1693V16.6693C13.3333 17.5893 14.08 18.3359 15 18.3359H16.6667C17.5867 18.3359 18.3333 17.5893 18.3333 16.6693V10.0026C18.3333 5.40671 14.595 1.66921 10 1.66921Z" fill="#B9BBBE"/>
</svg>
