<svg width="640" height="560" viewBox="0 0 640 560" fill="none" xmlns="http://www.w3.org/2000/svg">
<g clip-path="url(#clip0_2_2)">
<g opacity="0.6">
<path opacity="0.6" d="M632 0H8C3.58172 0 0 3.58172 0 8V632C0 636.418 3.58172 640 8 640H632C636.418 640 640 636.418 640 632V8C640 3.58172 636.418 0 632 0Z" fill="#08070A"/>
<path opacity="0.6" d="M0 7.99999C0 3.58171 3.58172 0 8 0H40V640H8C3.58172 640 0 636.418 0 632V7.99999Z" fill="#08070A"/>
<path opacity="0.6" d="M40 0H160H632C636.418 0 640 3.58172 640 8V640H160C93.7258 640 40 636.418 40 632V0Z" fill="#08070A"/>
<path opacity="0.1" d="M20 32C26.6274 32 32 26.6274 32 20C32 13.3726 26.6274 8 20 8C13.3726 8 8 13.3726 8 20C8 26.6274 13.3726 32 20 32Z" fill="white"/>
<path opacity="0.1" d="M20 64C26.6274 64 32 58.6274 32 52C32 45.3726 26.6274 40 20 40C13.3726 40 8 45.3726 8 52C8 58.6274 13.3726 64 20 64Z" fill="white"/>
<path opacity="0.1" d="M20 96C26.6274 96 32 90.6274 32 84C32 77.3726 26.6274 72 20 72C13.3726 72 8 77.3726 8 84C8 90.6274 13.3726 96 20 96Z" fill="white"/>
<path opacity="0.6" d="M40 14C40 9.58173 43.5817 6 48 6H152C156.418 6 160 9.58172 160 14V630C160 634.418 156.418 638 152 638H48C43.5817 638 40 634.418 40 630V14Z" fill="#0E0C11"/>
<path opacity="0.1" d="M94 38.5875H50C48.8954 38.5875 48 39.4717 48 40.5625V44.5125C48 45.6033 48.8954 46.4875 50 46.4875H94C95.1046 46.4875 96 45.6033 96 44.5125V40.5625C96 39.4717 95.1046 38.5875 94 38.5875Z" fill="white"/>
<path opacity="0.1" d="M126 54.3875H50C48.8954 54.3875 48 55.2717 48 56.3625V60.3125C48 61.4033 48.8954 62.2875 50 62.2875H126C127.105 62.2875 128 61.4033 128 60.3125V56.3625C128 55.2717 127.105 54.3875 126 54.3875Z" fill="white"/>
<path opacity="0.1" d="M118 70.1875H50C48.8954 70.1875 48 71.0717 48 72.1625V76.1125C48 77.2033 48.8954 78.0875 50 78.0875H118C119.105 78.0875 120 77.2033 120 76.1125V72.1625C120 71.0717 119.105 70.1875 118 70.1875Z" fill="white"/>
<path opacity="0.1" d="M142 85.9875H50C48.8954 85.9875 48 86.8717 48 87.9625V91.9125C48 93.0033 48.8954 93.8875 50 93.8875H142C143.105 93.8875 144 93.0033 144 91.9125V87.9625C144 86.8717 143.105 85.9875 142 85.9875Z" fill="white"/>
<path opacity="0.1" d="M94 109.688H50C48.8954 109.688 48 110.572 48 111.663V115.613C48 116.703 48.8954 117.588 50 117.588H94C95.1046 117.588 96 116.703 96 115.613V111.663C96 110.572 95.1046 109.688 94 109.688Z" fill="white"/>
<path opacity="0.1" d="M126 125.488H50C48.8954 125.488 48 126.372 48 127.463V131.413C48 132.503 48.8954 133.388 50 133.388H126C127.105 133.388 128 132.503 128 131.413V127.463C128 126.372 127.105 125.488 126 125.488Z" fill="white"/>
<path opacity="0.1" d="M118 141.288H50C48.8954 141.288 48 142.172 48 143.263V147.213C48 148.303 48.8954 149.188 50 149.188H118C119.105 149.188 120 148.303 120 147.213V143.263C120 142.172 119.105 141.288 118 141.288Z" fill="white"/>
<path opacity="0.1" d="M150 13.9H50C48.8954 13.9 48 14.7842 48 15.875V19.825C48 20.9158 48.8954 21.8 50 21.8H150C151.105 21.8 152 20.9158 152 19.825V15.875C152 14.7842 151.105 13.9 150 13.9Z" fill="white"/>
<path opacity="0.6" d="M165 14C165 9.58173 168.582 6 173 6H625.2C629.508 6 633 9.54814 633 13.925V632.075C633 636.452 629.508 640 625.2 640H173C168.582 640 165 636.418 165 632V14Z" fill="#15131A"/>
<g opacity="0.6">
<path opacity="0.1" d="M272.25 13.925H174.75C173.673 13.925 172.8 14.812 172.8 15.9063V19.8688C172.8 20.963 173.673 21.85 174.75 21.85H272.25C273.327 21.85 274.2 20.963 274.2 19.8688V15.9063C274.2 14.812 273.327 13.925 272.25 13.925Z" fill="white"/>
<path opacity="0.1" d="M599.85 13.925H595.95C594.873 13.925 594 14.812 594 15.9063V19.8688C594 20.963 594.873 21.85 595.95 21.85H599.85C600.927 21.85 601.8 20.963 601.8 19.8688V15.9063C601.8 14.812 600.927 13.925 599.85 13.925Z" fill="white"/>
<path opacity="0.1" d="M611.55 13.925H607.65C606.573 13.925 605.7 14.812 605.7 15.9063V19.8688C605.7 20.963 606.573 21.85 607.65 21.85H611.55C612.627 21.85 613.5 20.963 613.5 19.8688V15.9063C613.5 14.812 612.627 13.925 611.55 13.925Z" fill="white"/>
<path opacity="0.1" d="M623.25 13.925H619.35C618.273 13.925 617.4 14.812 617.4 15.9063V19.8688C617.4 20.963 618.273 21.85 619.35 21.85H623.25C624.327 21.85 625.2 20.963 625.2 19.8688V15.9063C625.2 14.812 624.327 13.925 623.25 13.925Z" fill="white"/>
<path opacity="0.6" d="M165 30.2703C165 29.9968 165.222 29.775 165.495 29.775H632.505C632.778 29.775 633 29.9968 633 30.2703V30.2703C633 30.5439 632.778 30.7656 632.505 30.7656H165.495C165.222 30.7656 165 30.5439 165 30.2703V30.2703Z" fill="white" fill-opacity="0.06"/>
<path opacity="0.1" d="M180.6 445.837C184.908 445.837 188.4 442.289 188.4 437.912C188.4 433.536 184.908 429.987 180.6 429.987C176.292 429.987 172.8 433.536 172.8 437.912C172.8 442.289 176.292 445.837 180.6 445.837Z" fill="white"/>
<path opacity="0.1" d="M229.35 431.969H194.25C193.173 431.969 192.3 432.856 192.3 433.95C192.3 435.044 193.173 435.931 194.25 435.931H229.35C230.427 435.931 231.3 435.044 231.3 433.95C231.3 432.856 230.427 431.969 229.35 431.969Z" fill="white"/>
<path opacity="0.1" d="M307.35 439.894H194.25C193.173 439.894 192.3 440.781 192.3 441.875C192.3 442.969 193.173 443.856 194.25 443.856H307.35C308.427 443.856 309.3 442.969 309.3 441.875C309.3 440.781 308.427 439.894 307.35 439.894Z" fill="white"/>
<path opacity="0.1" d="M180.6 477.538C184.908 477.538 188.4 473.989 188.4 469.613C188.4 465.236 184.908 461.688 180.6 461.688C176.292 461.688 172.8 465.236 172.8 469.613C172.8 473.989 176.292 477.538 180.6 477.538Z" fill="white"/>
<path opacity="0.1" d="M229.35 461.688H194.25C193.173 461.688 192.3 462.575 192.3 463.669C192.3 464.763 193.173 465.65 194.25 465.65H229.35C230.427 465.65 231.3 464.763 231.3 463.669C231.3 462.575 230.427 461.688 229.35 461.688Z" fill="white"/>
<path opacity="0.1" d="M346.35 469.612H194.25C193.173 469.612 192.3 470.5 192.3 471.594C192.3 472.688 193.173 473.575 194.25 473.575H346.35C347.427 473.575 348.3 472.688 348.3 471.594C348.3 470.5 347.427 469.612 346.35 469.612Z" fill="white"/>
<path opacity="0.1" d="M307.35 477.537H194.25C193.173 477.537 192.3 478.425 192.3 479.519C192.3 480.613 193.173 481.5 194.25 481.5H307.35C308.427 481.5 309.3 480.613 309.3 479.519C309.3 478.425 308.427 477.537 307.35 477.537Z" fill="white"/>
<path opacity="0.1" d="M180.6 513.2C184.908 513.2 188.4 509.652 188.4 505.275C188.4 500.898 184.908 497.35 180.6 497.35C176.292 497.35 172.8 500.898 172.8 505.275C172.8 509.652 176.292 513.2 180.6 513.2Z" fill="white"/>
<path opacity="0.1" d="M229.35 497.35H194.25C193.173 497.35 192.3 498.237 192.3 499.331C192.3 500.425 193.173 501.312 194.25 501.312H229.35C230.427 501.312 231.3 500.425 231.3 499.331C231.3 498.237 230.427 497.35 229.35 497.35Z" fill="white"/>
<path opacity="0.1" d="M268.35 505.275H194.25C193.173 505.275 192.3 506.162 192.3 507.256C192.3 508.35 193.173 509.237 194.25 509.237H268.35C269.427 509.237 270.3 508.35 270.3 507.256C270.3 506.162 269.427 505.275 268.35 505.275Z" fill="white"/>
<path opacity="0.1" d="M307.35 513.2H194.25C193.173 513.2 192.3 514.087 192.3 515.181C192.3 516.275 193.173 517.162 194.25 517.162H307.35C308.427 517.162 309.3 516.275 309.3 515.181C309.3 514.087 308.427 513.2 307.35 513.2Z" fill="white"/>
<path opacity="0.1" d="M248.85 521.125H194.25C193.173 521.125 192.3 522.012 192.3 523.106C192.3 524.2 193.173 525.088 194.25 525.088H248.85C249.927 525.088 250.8 524.2 250.8 523.106C250.8 522.012 249.927 521.125 248.85 521.125Z" fill="white"/>
<path opacity="0.1" d="M268.35 529.05H194.25C193.173 529.05 192.3 529.937 192.3 531.031C192.3 532.125 193.173 533.012 194.25 533.012H268.35C269.427 533.012 270.3 532.125 270.3 531.031C270.3 529.937 269.427 529.05 268.35 529.05Z" fill="white"/>
<path opacity="0.1" d="M180.6 564.712C184.908 564.712 188.4 561.164 188.4 556.787C188.4 552.411 184.908 548.862 180.6 548.862C176.292 548.862 172.8 552.411 172.8 556.787C172.8 561.164 176.292 564.712 180.6 564.712Z" fill="white"/>
<path opacity="0.1" d="M229.35 550.844H194.25C193.173 550.844 192.3 551.731 192.3 552.825C192.3 553.919 193.173 554.806 194.25 554.806H229.35C230.427 554.806 231.3 553.919 231.3 552.825C231.3 551.731 230.427 550.844 229.35 550.844Z" fill="white"/>
<path opacity="0.1" d="M307.35 558.769H194.25C193.173 558.769 192.3 559.656 192.3 560.75C192.3 561.844 193.173 562.731 194.25 562.731H307.35C308.427 562.731 309.3 561.844 309.3 560.75C309.3 559.656 308.427 558.769 307.35 558.769Z" fill="white"/>
</g>
</g>
</g>
<defs>
<clipPath id="clip0_2_2">
<rect width="640" height="560" fill="white"/>
</clipPath>
</defs>
</svg>
