<svg width="20" height="20" viewBox="0 0 20 20" fill="none" xmlns="http://www.w3.org/2000/svg">
<path fill-rule="evenodd" clip-rule="evenodd" d="M12.4917 9.16666C12.4917 10.55 11.3833 11.6667 10 11.6667C8.61666 11.6667 7.5 10.55 7.5 9.16666V4.16666C7.5 2.78333 8.61666 1.66666 10 1.66666C11.3833 1.66666 12.5 2.78333 12.5 4.16666L12.4917 9.16666ZM10 13.4167C12.0769 13.4167 14.0043 11.9897 14.3587 9.87203C14.4233 9.48619 14.7338 9.16666 15.125 9.16666V9.16666C15.5162 9.16666 15.8382 9.48545 15.7864 9.87321C15.488 12.1085 13.7977 13.9347 11.6761 14.5781C11.2011 14.7221 10.8333 15.1346 10.8333 15.631V17.5C10.8333 17.9602 10.4602 18.3333 10 18.3333V18.3333C9.53976 18.3333 9.16666 17.9602 9.16666 17.5V15.6284C9.16666 15.1331 8.80049 14.7212 8.32684 14.5766C6.2045 13.9289 4.51313 12.103 4.2138 9.87318C4.16176 9.48546 4.4838 9.16666 4.875 9.16666V9.16666C5.2662 9.16666 5.57674 9.48619 5.6413 9.87203C5.99566 11.9897 7.92308 13.4167 10 13.4167Z" fill="#B9BBBE"/>
</svg>
