<svg width="20" height="20" viewBox="0 0 20 20" fill="none" xmlns="http://www.w3.org/2000/svg">
<path d="M5.6423 9.87174C5.57719 9.48599 5.2662 9.16666 4.875 9.16666V9.16666C4.4838 9.16666 4.16177 9.48526 4.21483 9.87284C4.27002 10.276 4.3712 10.6655 4.5109 11.0383C4.67939 11.488 5.25131 11.5654 5.59085 11.2258V11.2258C5.8025 11.0142 5.85732 10.6961 5.76967 10.4099C5.71633 10.2357 5.67343 10.0562 5.6423 9.87174Z" fill="#B9BBBE"/>
<path d="M12.3938 4.42264L7.8413 8.9676C7.71526 9.09343 7.5 9.00416 7.5 8.82606V4.16666C7.5 2.78333 8.61667 1.66666 10 1.66666C11.3833 1.66666 12.5 2.78333 12.5 4.16666C12.5 4.2627 12.4618 4.35479 12.3938 4.42264Z" fill="#C4C4C4"/>
<path d="M10 13.4167C9.85337 13.4167 9.71055 13.4698 9.60685 13.5735L9.136 14.0442L8.84259 14.3401C8.71014 14.4736 8.77184 14.6987 8.95684 14.7325V14.7325C9.0764 14.7544 9.16667 14.8569 9.16667 14.9785V17.5C9.16667 17.9602 9.53976 18.3333 10 18.3333V18.3333C10.4602 18.3333 10.8333 17.9602 10.8333 17.5V15.6284C10.8333 15.1331 11.1995 14.7212 11.6732 14.5766C13.7955 13.9289 15.4869 12.103 15.7862 9.87318C15.8382 9.48546 15.5162 9.16666 15.125 9.16666V9.16666C14.7338 9.16666 14.4233 9.48619 14.3587 9.87203C14.0043 11.9897 12.0769 13.4167 10 13.4167V13.4167Z" fill="#B9BBBE"/>
<path d="M16.9708 4.0875C17.2631 3.79525 17.2631 3.32142 16.9708 3.02917V3.02917C16.6786 2.73692 16.2047 2.73692 15.9125 3.02917L3.02948 15.9122C2.73706 16.2046 2.73706 16.6787 3.02948 16.9711V16.9711C3.32166 17.2633 3.79529 17.2636 4.08782 16.9718L7.05 14.0167L8.075 12.9833L9.45833 11.6L12.4917 8.56667L16.9708 4.0875Z" fill="#ED4245"/>
</svg>
