<svg width="5959" height="4463" viewBox="0 0 5959 4463" fill="none" xmlns="http://www.w3.org/2000/svg">
<g clip-path="url(#clip0_2_25)">
<path d="M864.317 2016.78C768.096 1702.88 849.013 1085.57 894.018 804.109C902.538 750.819 970.829 737.279 1000.28 782.5L1273.38 1201.81C1291.19 1229.15 1327.77 1237.59 1357.26 1223.64C1408.58 1199.38 1492.78 1166.68 1585.98 1159.25C1677.36 1151.96 1757.73 1169.5 1808.37 1185.15C1840.07 1194.94 1876.23 1181.8 1890.53 1151.87L2121.38 668.716C2142.97 623.517 2206.16 623.409 2226.56 669.163C2335.98 914.61 2576.38 1507.97 2526.96 1883.24C2480.24 2237.98 2050.47 2473.32 1693.54 2498.44C1344.86 2522.97 966.758 2350.97 864.317 2016.78Z" fill="#24212C"/>
<path d="M2077.06 1485.2C1979.28 1511.75 1883.77 1591.07 1890.83 1678.96C1896.33 1747.51 1916.91 1824.7 2019.54 1864.18C2058.27 1879.08 2187.09 1886.09 2296.3 1824.12C2384.83 1773.9 2402.44 1610.56 2341.34 1533.05C2279.05 1454.03 2174.16 1458.85 2077.06 1485.2Z" fill="#5B536D"/>
<path d="M1272.97 1577.27C1373.74 1587.86 1480.68 1650.93 1487.74 1738.81C1493.25 1807.36 1485.26 1886.85 1390.25 1942.2C1354.38 1963.09 1228.34 1990.58 1110.63 1946.84C1015.22 1911.38 971.771 1752.95 1019.72 1666.68C1068.59 1578.74 1172.91 1566.75 1272.97 1577.27Z" fill="#5B536D"/>
<path d="M1417.15 3311.89L1299.71 2416.93L1661.6 2162.07L2059.44 2179.55C2059.44 2179.55 2414.76 2618.57 2587.89 2979.05C2761.01 3339.52 2604.18 3108.08 2557.71 3165.24C2464.62 3279.76 2313.6 2921.74 2276.39 2912.91C2239.18 2904.09 2414.4 3254.26 2415.33 3366.31C2416.27 3478.37 2138.29 2950.16 2098.46 3024.4C2058.62 3098.64 2247.71 3280.04 2235.35 3325.85C2222.99 3371.66 2149.16 3273.6 2090.3 3280.86C1960.89 3296.84 2048.85 3615.1 1985.35 3597.84C1921.84 3580.58 1867 2811.24 1835.27 2991.13C1803.53 3171.01 1816.38 3514.47 1743.49 3469.67C1670.6 3424.86 1704.32 2982.31 1581.19 3192.53C1458.07 3402.75 1669.75 3652.4 1530.5 3585.19C1457.58 3550 1431.89 3423.23 1423.93 3366.79C1421.35 3348.5 1419.55 3330.19 1417.15 3311.89Z" fill="#24212C"/>
<path d="M1638.46 3255.17C1645.63 3279.06 1657.94 3322.9 1662.16 3355.35C1671.03 3423.63 1719.7 3505.94 1655.78 3531.54C1586.06 3559.46 1564.21 3433.53 1571.32 3358.76C1574.93 3320.84 1605.26 3275.01 1622.04 3252.21C1626.7 3245.88 1636.2 3247.63 1638.46 3255.17Z" fill="#24212C"/>
<path d="M2192.52 3372.36C2169.78 3354.82 2136.96 3340.69 2108.16 3330.55C2097.38 3326.76 2091.06 3340.88 2100.35 3347.54C2119.36 3361.15 2138.42 3376.52 2148.27 3389.45C2156.77 3400.6 2201.65 3441.79 2187.13 3469.89C2177.48 3488.55 2153.19 3480.21 2138.53 3495.22C2107.63 3526.86 2102.01 3571.37 2130.41 3612.11C2173.21 3673.49 2273.01 3628.28 2303.91 3569.13C2340.69 3498.7 2264.08 3427.56 2192.52 3372.36Z" fill="#24212C"/>
<path d="M2510.25 3313.37C2484.68 3301.09 2474.09 3265.77 2469.72 3240.27C2467.02 3224.52 2479.18 3211.11 2495.15 3211.39C2523.57 3211.88 2566.25 3215.76 2589.31 3233.09C2613.43 3251.22 2637.12 3266.39 2630.78 3295.13C2621.56 3336.9 2550.82 3332.84 2510.25 3313.37Z" fill="#24212C"/>
<path fill-rule="evenodd" clip-rule="evenodd" d="M2873.77 4235.6L3012.46 3268.91C3021.4 3206.53 3041.83 3146.29 3076.45 3093.64C3192.75 2916.77 3492.82 2513.91 3793.5 2548.5C4036.75 2576.49 4244.76 2886.68 4342.84 3059.64C4384.8 3133.64 4399.62 3219.02 4393.17 3303.85L4319.05 4279.16C4311.12 4383.43 4224.2 4464 4119.62 4464H3071.74C2949.98 4464 2856.48 4356.12 2873.77 4235.6ZM3670.02 2891.68L3701.35 2947.36C3704.86 2953.61 3713.62 2954.24 3717.99 2948.55L3770.86 2879.78C3778.86 2869.37 3795.28 2872.35 3799.11 2884.9C3819.22 2950.68 3836.88 3034.87 3783.94 3078.79C3747.42 3109.08 3708.76 3119.82 3664.71 3102.18C3601.05 3076.68 3610.83 2985.67 3635.47 2921.67L3646.34 2893.41C3650.33 2883.05 3664.58 2882.01 3670.02 2891.68Z" fill="#423D51"/>
</g>
<defs>
<clipPath id="clip0_2_25">
<rect width="5959" height="4463" fill="white"/>
</clipPath>
</defs>
</svg>
