<svg width="24" height="24" viewBox="0 0 24 24" fill="none" xmlns="http://www.w3.org/2000/svg">
<path d="M20.678 13.606C21.0685 13.2155 21.0685 12.5825 20.678 12.192L12.1925 3.7065C11.8023 3.31623 11.1696 3.31601 10.779 3.706V3.706C10.3881 4.09638 10.3879 4.72984 10.7785 5.1205L11.486 5.828L6.53741 10.7756C6.53651 10.7765 6.536 10.7777 6.536 10.779V10.779L5.82836 10.0714C5.43773 9.68073 4.80428 9.68095 4.41379 10.0717V10.0717C4.02347 10.4623 4.02352 11.0954 4.41403 11.4859L7.95 15.021L5.14714 17.8229C5.12978 17.8402 5.11461 17.8596 5.10199 17.8807L3.61723 20.3553C3.45656 20.6231 3.76099 20.9275 4.0288 20.7669L6.50431 19.282C6.52536 19.2694 6.54477 19.2542 6.56213 19.2369L9.364 16.435L12.9 19.9701C13.2905 20.3605 13.9235 20.3605 14.314 19.97V19.97C14.7045 19.5795 14.7045 18.9464 14.314 18.5559L13.607 17.849L18.556 12.899H18.557L19.264 13.606C19.6545 13.9965 20.2876 13.9965 20.678 13.606V13.606Z" fill="#B9BBBE"/>
</svg>
