<svg width="20" height="21" viewBox="0 0 20 21" fill="none" xmlns="http://www.w3.org/2000/svg">
<path d="M15.1829 5.44201C17.8805 8.27448 17.8805 12.7255 15.1829 15.558C12.3411 18.5418 7.59964 18.5996 4.68599 15.686C1.82185 12.8218 1.82184 8.17815 4.68599 5.31401C7.59964 2.40036 12.3411 2.45818 15.1829 5.44201Z" stroke="#C4C4C4" stroke-width="0.8"/>
<path d="M7.5 7.5C7.5 6.11929 8.61929 5 10 5C11.3807 5 12.5 6.11929 12.5 7.5C12.5 8.88071 11.3807 10 10 10C8.61929 10 7.5 8.88071 7.5 7.5Z" fill="#C4C4C4"/>
<path d="M6.07444 14.3062C6.28091 13.1609 7.06002 11 10 11C12.94 11 13.7191 13.1609 13.9256 14.3062C13.9941 14.6866 13.6866 15 13.3 15H6.7C6.3134 15 6.00585 14.6866 6.07444 14.3062Z" fill="#C4C4C4"/>
</svg>
